<svg xmlns="http://www.w3.org/2000/svg" xmlns:xlink="http://www.w3.org/1999/xlink" viewBox="0 0 1920 2160"><defs><linearGradient id="a" x1="-215.237" y1="-116.073" x2="2079.515" y2="1168.037" gradientUnits="userSpaceOnUse"><stop offset="0" stop-color="#282942"/><stop offset="1" stop-color="#0c0b19"/></linearGradient><linearGradient id="b" x1="-1337.426" y1="81.776" x2="4642.907" y2="-1576.291" gradientUnits="userSpaceOnUse"><stop offset="0" stop-color="#1c1d30"/><stop offset="1" stop-color="#151424"/></linearGradient><linearGradient id="c" x1="-1330.591" y1="106.297" x2="4649.651" y2="-1551.744" xlink:href="#b"/><linearGradient id="d" x1="-1348.718" y1="40.055" x2="4630.839" y2="-1617.797" xlink:href="#b"/><linearGradient id="e" x1="-1282.502" y1="284.635" x2="4702.049" y2="-1374.601" xlink:href="#b"/><linearGradient id="f" x1="-1284.887" y1="269.984" x2="4694.742" y2="-1387.887" xlink:href="#b"/><linearGradient id="g" x1="-1280.277" y1="269.53" x2="4688.85" y2="-1385.43" xlink:href="#b"/><linearGradient id="h" x1="-1275.72" y1="304.207" x2="4704.529" y2="-1353.836" xlink:href="#b"/><linearGradient id="i" x1="-1264.779" y1="343.57" x2="4715.423" y2="-1314.46" xlink:href="#b"/><linearGradient id="j" x1="-1283.06" y1="277.699" x2="4697.146" y2="-1380.333" xlink:href="#b"/><linearGradient id="k" x1="-1320.546" y1="173.761" x2="4694.928" y2="-1494.049" xlink:href="#b"/><linearGradient id="l" x1="-1184.753" y1="632.333" x2="4795.465" y2="-1025.702" xlink:href="#b"/><linearGradient id="m" x1="-1183.5" y1="637.775" x2="4797.583" y2="-1020.5" xlink:href="#b"/><linearGradient id="n" x1="-1181.711" y1="643.395" x2="4798.59" y2="-1014.663" xlink:href="#b"/><linearGradient id="o" x1="-1113.801" y1="895.416" x2="4873.958" y2="-764.71" xlink:href="#b"/><linearGradient id="p" x1="-1109.842" y1="902.643" x2="4870.459" y2="-755.415" xlink:href="#b"/><linearGradient id="q" x1="-1114.491" y1="888.179" x2="4867.674" y2="-770.396" xlink:href="#b"/><linearGradient id="r" x1="-1115.807" y1="881.102" x2="4864.484" y2="-776.953" xlink:href="#b"/><linearGradient id="s" x1="-1193.172" y1="598.58" x2="4785.41" y2="-1059.001" xlink:href="#b"/><linearGradient id="t" x1="-1122.693" y1="856.28" x2="4857.609" y2="-801.777" xlink:href="#b"/><linearGradient id="u" x1="-1163.233" y1="741.588" x2="4837.315" y2="-922.084" xlink:href="#b"/><linearGradient id="v" x1="-1029.719" y1="1191.642" x2="4950.583" y2="-466.416" xlink:href="#b"/><linearGradient id="w" x1="-1024.633" y1="1210" x2="4955.669" y2="-448.058" xlink:href="#b"/><linearGradient id="x" x1="-1021.935" y1="1217.877" x2="4956.946" y2="-439.787" xlink:href="#b"/><linearGradient id="y" x1="-1028.665" y1="1196.904" x2="4952.431" y2="-461.374" xlink:href="#b"/><linearGradient id="z" x1="-1026.727" y1="1202.417" x2="4953.565" y2="-455.638" xlink:href="#b"/><linearGradient id="aa" x1="-953.295" y1="1475.587" x2="5034.186" y2="-184.462" xlink:href="#b"/><linearGradient id="ab" x1="-957.086" y1="1453.958" x2="5023.411" y2="-204.153" xlink:href="#b"/><linearGradient id="ac" x1="-950.086" y1="1460.267" x2="5019.039" y2="-194.692" xlink:href="#b"/><linearGradient id="ad" x1="-965.528" y1="1423.442" x2="5014.911" y2="-234.654" xlink:href="#b"/><linearGradient id="ae" x1="-952.959" y1="1468.39" x2="5027.248" y2="-189.642" xlink:href="#b"/><linearGradient id="af" x1="-987.684" y1="1359.69" x2="5012.973" y2="-304.011" xlink:href="#b"/><linearGradient id="ag" x1="-857.998" y1="1810.957" x2="5122.221" y2="152.922" xlink:href="#b"/><linearGradient id="ah" x1="-853.875" y1="1825.91" x2="5126.402" y2="167.859" xlink:href="#b"/><linearGradient id="ai" x1="-856.735" y1="1816.462" x2="5124.364" y2="158.183" xlink:href="#b"/><linearGradient id="aj" x1="-854.954" y1="1822.018" x2="5125.338" y2="163.963" xlink:href="#b"/><linearGradient id="ak" x1="-804.382" y1="2004.39" x2="5175.858" y2="346.35" xlink:href="#b"/><linearGradient id="al" x1="-799.907" y1="2561.026" x2="5179.964" y2="903.088" xlink:href="#b"/><linearGradient id="am" x1="-798.346" y1="2028.778" x2="5184.003" y2="370.153" xlink:href="#b"/><linearGradient id="an" x1="-789.052" y1="2059.726" x2="5191.24" y2="401.671" xlink:href="#b"/><linearGradient id="ao" x1="-833.481" y1="1913.293" x2="5154.466" y2="253.115" xlink:href="#b"/><linearGradient id="ap" x1="-788.684" y1="2061.294" x2="5191.743" y2="403.202" xlink:href="#b"/></defs><path d="M1890.789-537.974H.811v2160h1920v-2160Z" transform="translate(-0.811 537.974)" fill="url(#a)"/><path d="M678.535-435.345l-3.555,10.923,31.5-9.609,2.426-1.724c2.3-8.574,5.234-18.323,8.439-27.171l-.275-.9c2.283-5.414,8.627-38.066,13.793-38.644l116.4-35.5H769.851L735.98-527.643l3.274-10.331H711.247l-31.11,98.205C679.512-438.595,679.161-436.52,678.535-435.345Z" transform="translate(-0.811 537.974)" fill="url(#b)"/><path d="M960.387-514.427l2.623,2.151,32.4-9.884-19.833-15.814H930.649C940.571-530.128,950.722-522.352,960.387-514.427Z" transform="translate(-0.811 537.974)" fill="url(#c)"/><path d="M372.1-488.478l22.786,74.713c7.78,27.128,24.487,54.122,57.3,52.379,40.271-3.648,65.495-16.295,109.383-28.442,25.225-7.643,58.992-18.033,83.709-25.534l-6.863-22.5c-55,14.742-122.808,41.752-178.141,51.388-35.818,3.358-41.115-36.021-49.317-61.7L614.377-510.23l-6.863-22.5L404.993-470.961l-.275-.9c-5.552-20.889-19.245-46.31-4.269-66.113H369.057C363.474-522.454,367.637-503.747,372.1-488.478Z" transform="translate(-0.811 537.974)" fill="url(#d)"/><path d="M520.446-98.846l-19.491-63.911c41.82-12.94,105.657-32.094,146.716-44.751,17.237-5.8,34.44-11.378,49.109-22.85,20.715-16.73,17.174-44.462,9.157-66.746-4.2-14.247-8.5-29.994-17.052-43.009-19.247-30.44-58.126-23.588-87.137-14.745-47.668,14.37-124.9,38.217-173.718,52.987L492.543-90.335ZM461.9-287.6c42.645-11.168,126.207-42.45,171.841-49.466,32.126-3.177,37.7,25.723,44.846,50.278,11.861,29.111,1.155,46.75-28.5,54.934-48.9,14.979-108.23,32.97-157.516,48.047L461-287.329Z" transform="translate(-0.811 537.974)" fill="url(#e)"/><path d="M1272.732-390.291c1.434,4.7,15.816,51.858,17.57,57.61l25.2-7.687L1260.874-519.5c66.286,30.435,181.664,86.046,248.853,115.955,8.615,4.352,17.918,1.2,26.576-3.188,4.61-3.28,2.358-8.761.931-13.075-7.806-26.657-27.878-90.648-36.038-118.167h-27.547l32.069,105.151c-44.35-22.187-90.607-42.946-135.586-63.92-43.307-20.45-40-19.53-86.24-41.231h-56.116C1242.559-488.717,1258.074-438.619,1272.732-390.291Z" transform="translate(-0.811 537.974)" fill="url(#f)"/><path d="M981.921-240.587l-29.983,9.145h0L983.4-240.9c6.98-21.759,12.562-43.173,19.859-65.23-.275-.9,1.251-2.35,3.051-2.9l88.209-26.9,85.509-26.082a3.757,3.757,0,0,1,4.149.7c19.315,13.727,36.161,29.061,54.55,43.379l32.4-9.884c-59.945-48.347-135.758-107.526-194.862-155.052-9.692-6.847-16.626-15.089-30.692-10.315-8.719,2.708-14.079,9.384-16.234,17.741-6.824,21.051-60.718,191.8-68.756,216.767l-8.644,27.233ZM1052.907-465.9l107.926,86.132L1011.417-334.2Z" transform="translate(-0.811 537.974)" fill="url(#g)"/><path d="M1560.227-457.32c16.711,29.719,55.9,24.263,83.538,15.842L1798.581-488.7l-6.863-22.5c-54.955,14.754-121.468,41.3-177.241,51.114-35.01,2.045-41.361-35.812-49.317-61.7l53.046-16.18h-86.512C1541.342-510.393,1545.462-481.724,1560.227-457.32Z" transform="translate(-0.811 537.974)" fill="url(#h)"/><path d="M1867.142-515.515l1.647,5.4,27.9-8.511-5.9-19.349h-30.5C1862.49-530.769,1864.816-523.141,1867.142-515.515Z" transform="translate(-0.811 537.974)" fill="url(#i)"/><path d="M748.832-240.331c13.939,49.807,48.889,56.747,94.749,42.923,30.936-9.5,74-22.129,108.357-34.034l8.644-27.233c-216.69,65.685-158.394,71.7-229.495-136.618l-27,8.237C718.709-339.1,734.257-288.121,748.832-240.331Z" transform="translate(-0.811 537.974)" fill="url(#j)"/><path d="M131.538-290.147c35.207,31.568,79.766,58.316,98.542,103.752,16.107,33.459-1.715,78.25-40.693,89.155C121.29-87.109,69.21-165.8,85.583-227.92c-14.419,39.819-1.318,86,32.867,110.994,12.921,6.882-.337,24.7-6.791,32.572-4.577,4.348-4.028,6.148-.581,11,27.842,44.22,55.874,106.647,23.069,156.289,12.678-6.818,16.463-26.667,18.92-41.191,1.679-7.4-4.207-33.153,9.613-26.545,13.394,11.657,31.486,25.816,14.9,45.633C304.545-.417,306.39-157.909,262.39-273.981c-28-122.941-120.655-250.99-261.451-231.137v117.07C58.714-382.287,107.717-350.926,131.538-290.147Z" transform="translate(-0.811 537.974)" fill="url(#k)"/><path d="M484.754,280.7l1.647,5.4,26.1-7.962c-.371-1.219-22.705-74.449-23.06-75.613,24.251,4.24,151.421,17.331,192.9,22.825,18.152-2.854,41.565-12.549,59.681-17.221C681.144,201.508,611.81,194.778,547.6,186.75c23.351-7.331,63.567-19.239,86.409-26.357,18.095-5.113,38.466-13.17,52.161-25.748,15.924-13.468,18.7-35.6,13-54.144-4.369-14.135-8.749-32.411-17.877-45.71-19.606-30.978-61.279-20.42-91.089-11.571-46.1,13.907-121.09,37.044-168.318,51.339Zm47.233-216.1,66.607-20.316c26.773-8.731,58.554-15.675,67.06,19.886,5.847,21.186,18.706,44.421-3.329,60.048-10.017,7.577-23.427,12.034-35.531,15.757-41.581,12.755-99.2,30.206-141.315,43.1l-29.1-95.416Z" transform="translate(-0.811 537.974)" fill="url(#l)"/><path d="M263.605,349.133c27.7-1.87,51.255-9.95,78.506-20.009l116.112-35.417-6.863-22.5c-55.223,14.835-122.487,41.614-178.142,51.388-35.391,3.833-41.385-37.071-49.591-62.605l203.422-62.047c-2.141-7.019-4.451-14.6-6.589-21.6L216.139,238.657c-4.35-15.16-10.784-31.129-11.3-46.732-4.235-40.377,69.015-46.436,97.35-58.226l-6.864-22.5c-41.924,15.827-119.73,22.213-119.335,79.689,3.2,36.052,21.784,79.418,29.342,109.119C214.1,327.032,231.877,351.771,263.605,349.133Z" transform="translate(-0.811 537.974)" fill="url(#m)"/><path d="M69.675,377.784c3.28,10.755,6.6,21.641,9.883,32.406l27-8.237L48.91,212.921l100.81-30.749-6.863-22.5L.939,202.956v24.6l20.968-6.4Z" transform="translate(-0.811 537.974)" fill="url(#n)"/><path d="M292.619,563.626l17.02,55.81,25.2-7.687L280.211,432.618c32.447,15.469,110.7,51.32,151.481,70.879,23.3,11.315,71.476,33.6,81.479,38.117,10.484,3.776,20.127,11.98,31.942,7.966,9.246-2.455,17.033-5.847,11.457-17.27-8.092-26.406-52.533-172.353-61.492-201.635l-25.2,7.687,55.18,180.932C445.8,480.721,376.63,449.571,296.247,411c-9.434-3.035-25.612-15.21-34.492-13.093-8.374,2.633-18.278,8.08-14.158,18.095C262.614,465.242,277.873,515.277,292.619,563.626Z" transform="translate(-0.811 537.974)" fill="url(#o)"/><path d="M6.965,697.982c4.608-17.147,10.117-34.57,15.626-51.992-.275-.9,1.25-2.35,3.051-2.9l88.209-26.9L199.36,590.1a3.755,3.755,0,0,1,4.149.7c19.315,13.726,36.161,29.061,54.55,43.379l32.4-9.884C225.926,572.979,148.578,510.635,84.207,460.917c-9.027-7.288-29.141-1.8-33.3,10.16-5.177,12.548-9.035,26.7-13.246,40.443L.939,627.213c.531,1.009-.765,83.309.318,84.317l-.318.1v.984l1.494-.456Zm65.279-211.77L180.17,572.344,30.754,617.918Z" transform="translate(-0.811 537.974)" fill="url(#p)"/><path d="M581.347,332.9c23.841-14.62,56.3-19.877,82.611-29.134l-6.864-22.5c-40.524,15.469-120,21.787-118.709,78.514,3.17,36.766,20.025,73.153,28.792,107.318,5.617,17.273,12.923,35.01,29.228,44.216,39.218,18.542,91.175-11.29,136.005-21.8,25.244-7.519,60-18.436,85.508-26.084l-6.863-22.5c-54.955,14.753-121.468,41.3-177.241,51.114-35.01,2.045-41.361-35.812-49.317-61.705l203.421-62.047-6.863-22.5L577.634,407.819C570.489,384.127,555.527,350.158,581.347,332.9Z" transform="translate(-0.811 537.974)" fill="url(#q)"/><path d="M952.326,191.207,723.7,260.941l6.863,22.5,99.91-30.474c2.92,9.572,56.362,184.8,57.651,189.032l27.9-8.511L858.379,244.46l100.81-30.749Z" transform="translate(-0.811 537.974)" fill="url(#r)"/><path d="M1757.62-230.538l-.274-.9c-3.86-15.35-11.418-29.654-11.027-45.831-.313-25.22,25.655-35.974,46.32-41.676,13.4-4.151,38.523-11.706,52.205-15.924l-6.863-22.5c-143.908,40.846-133.031,48.171-90.463,184.032,7.773,27.117,24.49,54.128,57.294,52.379,41.4-3.76,71.206-18.165,116-30.461v-24.6c-35.773,9.4-71.285,25.266-107.911,29.966-35.818,3.359-41.113-36.021-49.317-61.7l157.228-47.957v-24.6Z" transform="translate(-0.811 537.974)" fill="url(#s)"/><path d="M1780.658-61.449l64.513,211.537,27.9-8.511-19.491-63.911,67.228-20.506V33.547l-75.617,23.064L1813.623-46.906,1920.811-79.6v-24.6Z" transform="translate(-0.811 537.974)" fill="url(#t)"/><path d="M1010.473,80.986c28.757,127.8,86.239,292.536,241.562,295.278-7.048-3.754-13.47-8.682-19.892-13.61-22.165-17.837-17.844-58.511,17.777-54.617,11,.58,12.876-2.944,14.2-8.268,2.655-10.649,5.036-22.2-6.436-27.554-39.739-17.4-75.922-45.714-94.851-85.2-12.737-25.632,6.075-51.048,33.947-46.758,54.019,6.152,128.25,36.641,128.6,92.617,8.394-37-28.141-63.241-57.583-75.906-7.048-3.754,2.5-4.7,6.1-5.8,123.448-8.137,42.071-142.706-45.864-114.9-30.329,10.235-58.461,27.67-91.81,28-12.8-.031-.792-15.5-12.889-19.681-14.1-7.508,1.238-24.975,12.16-21.419,5.05.427,9.55-.945,12.327-4.744,16.431-13.867,2.444-37.15,10.927-54.5,13.749-48.468,61.517-88.62,105.622-102.072,92.984-27.378,184.317-2.106,219.794,88.413,35.207,31.569,79.766,58.317,98.542,103.752,16.107,33.459-1.715,78.251-40.694,89.156-68.147,10.126-120.139-68.555-103.8-130.68-14.42,39.818-1.318,86,32.867,110.993,12.921,6.882-.338,24.7-6.792,32.572-4.577,4.348-4.028,6.149-.58,11,27.842,44.22,55.874,106.648,23.069,156.29,12.678-6.819,16.463-26.667,18.92-41.191,1.679-7.4-4.208-33.153,9.613-26.546,13.393,11.657,31.485,25.817,14.9,45.634C1657.132,240,1659.047,82.517,1615.017-33.559c-24.149-79.212-57.628-166.406-136.053-207.422-88.371-47.821-191.882-16.248-281.068,13.907C1050.357-185.023,970.379-73.062,1010.473,80.986Zm139.222-8.03c31.306-13.484,10.662,25.281,41.31,25.772,15.3-4.667,24.393,12.237,20.486,25.236-3.785,19.848-20.779,9.289-33.106,14.033-18.627,6.666-27.462,26.086-20.522,45.615,3.92,9.628,3.844,12.6-4.334,18.049-8.528,7.52-32.48,12.858-30.846-4.366,1.4-8.3-2.943-12.877-10.617-15.456-7.124-.778-13.776,3.218-16.8-6.684C1081.743,134.023,1114.988,91.414,1149.7,72.956Z" transform="translate(-0.811 537.974)" fill="url(#u)"/><path d="M1770.733,302.58c10.9,35.752,53.608,175.78,64.513,211.536l26.1-7.962c-.372-1.218-22.7-74.449-23.06-75.612a.92.92,0,0,0,1.174.625c8.3,1.4-11.273-1.481,56.094,6.5q12.661,1.314,25.254,2.746v-22.9c-7.9-1.335-16.129-2.044-24.367-2.741l24.367-7.432v-22.63l-86.487,26.38-29.1-95.417,115.587-35.255V256.8Z" transform="translate(-0.811 537.974)" fill="url(#v)"/><path d="M1099.049,677.668l174.619-53.262c1.554-.534,3.031-1.108,3.249.977,18.333,13.434,36.57,28.284,54.276,42.478l32.4-9.883c-50.469-40.22-146.077-116.443-195.135-155.952-7.731-8.491-18.894-15.622-30.694-10.316-9.784,1.347-13.605,11.019-16.858,18.917-4.258,15.072-9.416,30.42-13.947,44.593-7.047,22.014-56.176,178.2-63.8,200.5l31.5-9.609,2.425-1.724c2.305-8.574,5.234-18.323,8.439-27.171l-.275-.9C1087.546,710.874,1093.877,678.257,1099.049,677.668Zm47.229-158.054c2.962,1.883,101.463,80.472,107.925,86.132-4.226,2.273-22.228,7.764-96.935,30.551l-53.106,16.2Z" transform="translate(-0.811 537.974)" fill="url(#w)"/><path d="M763.071,766.373c15.175,52.979,46.613,60.411,96.473,45.348,43.366-13.225,107.317-32.733,153.916-46.946l-6.863-22.5c-55.006,14.742-122.809,41.753-178.142,51.389-35.818,3.358-41.114-36.021-49.317-61.7L982.56,669.908,975.7,647.4,773.175,709.177l-.274-.9c-3.86-15.35-11.418-29.654-11.027-45.831-.313-25.219,25.654-35.974,46.32-41.676,13.4-4.151,38.523-11.706,52.205-15.924l-6.863-22.5C709.589,623.181,720.528,630.568,763.071,766.373Z" transform="translate(-0.811 537.974)" fill="url(#x)"/><path d="M1627.968,344.158c-39.634,13.666-103.3,21.95-103.134,74.748,3.2,36.045,21.787,79.421,29.342,109.117,6.388,16.818,14.628,36.232,32.2,44.292,32.54,13.2,71.831-4.164,104.579-15.169,8.78-2.81,104.916-31.91,116.112-35.419l-6.863-22.5c-55.223,14.835-122.487,41.614-178.142,51.388-35.392,3.833-41.386-37.071-49.591-62.6l203.421-62.047c-2.14-7.019-4.451-14.6-6.588-21.6l-204.322,62.322c-4.349-15.161-10.784-31.129-11.3-46.732-4.235-40.377,69.015-46.436,97.35-58.226l-6.863-22.5Z" transform="translate(-0.811 537.974)" fill="url(#y)"/><path d="M1470.663,418.7l27.9-8.511-6.863-22.5-228.624,69.734,6.863,22.5,100.811-30.749c7.451,24.433,51.205,167.9,57.65,189.032l27-8.236-57.651-189.032Z" transform="translate(-0.811 537.974)" fill="url(#z)"/><path d="M1015.853,972.63c48.8-14.668,78.8-34.521,58.266-89.6-6.508-24.2-16.82-56.073-43.915-63.346-19.785-4.582-41.307-.125-60.274,5.593-47.69,14.4-124.881,38.194-173.718,52.987L860.726,1089.8l27.9-8.511-19.491-63.911Zm-155.1,23.7-31.57-103.517c43.1-11.311,126.634-42.587,172.741-49.741,32.118-3.181,37.708,25.724,44.847,50.278,11.857,29.109,1.161,46.748-28.5,54.934C969.37,963.259,910.028,981.249,860.748,996.326Z" transform="translate(-0.811 537.974)" fill="url(#aa)"/><path d="M1905.417,760.331,1843.923,558.7l-25.2,7.687L1873.9,747.314c-53.368-26.8-125.953-58.71-177.048-83.741-1.849-.882-46.937-22.8-62.057-29.281-10.746-4.78-20.755-13.3-32.021-4.991-6.652,4-8.529,7.519-6.332,14.72,20.726,68,41.342,135.534,62.043,203.436l25.2-7.688-54.63-179.13c32.46,15.463,110.691,51.324,151.48,70.878,35.5,16.952,72.767,34.517,97.373,45.075,8.609,4.354,17.921,1.2,26.575-3.186C1909.089,770.127,1906.848,764.643,1905.417,760.331Z" transform="translate(-0.811 537.974)" fill="url(#ab)"/><path d="M1444.447,697.27q-5.7-4.167-11.395-8.331c-9.649-7.645-29.959-1.283-33.928,11.333-8.676,24.96-60.919,192.491-70.36,221.19L1320.12,948.7l29.983-9.145L1320.12,948.7h0l31.067-9.452c6.98-21.76,12.952-43.177,20.249-65.234-.275-.9,1.251-2.349,3.051-2.9l88.209-26.906,85.51-26.081a3.755,3.755,0,0,1,4.149.7c19.314,13.726,36.161,29.061,54.55,43.378l32.4-9.883C1579.53,804.045,1503.43,744.745,1444.447,697.27ZM1379.6,845.939l41.49-131.706,107.925,86.132Z" transform="translate(-0.811 537.974)" fill="url(#ac)"/><path d="M1887.231,587.794a116.889,116.889,0,0,0,5.459,30.8c9.922,30.978,17.515,60.8,28.121,89.82V617.252c-4.915-14.284-8.965-33.584,0-46.757V537.974C1900.618,547.205,1885.914,566.085,1887.231,587.794Z" transform="translate(-0.811 537.974)" fill="url(#ad)"/><path d="M1272.132,938.736c-33.6,6.286-100.865,46.234-122.2,5.79-20.1-50.13-33.45-107.568-50.666-159.681l-27,8.236c14.667,48,30.142,98.9,44.748,146.726,7.353,27.261,26.995,51.679,58.273,49.129a156.705,156.705,0,0,0,36.475-6.206c30.93-9.5,74.007-22.125,108.357-34.034l8.644-27.234Z" transform="translate(-0.811 537.974)" fill="url(#ae)"/><path d="M530.863,1195.336c13.393,11.657,31.485,25.817,14.9,45.634,126.893-61.22,128.859-218.762,84.808-334.814-24.149-79.212-57.628-166.406-136.053-207.422-88.371-47.821-191.882-16.248-281.068,13.907C65.912,754.692-14.066,866.653,26.028,1020.7c28.74,127.818,86.251,292.522,241.562,295.278-7.048-3.754-13.47-8.682-19.892-13.61-22.165-17.837-17.844-58.511,17.777-54.617,11,.58,12.876-2.944,14.2-8.268,2.655-10.649,5.036-22.2-6.436-27.554-39.739-17.4-75.923-45.714-94.852-85.2-12.736-25.632,6.076-51.048,33.947-46.758,54.019,6.152,128.25,36.641,128.6,92.617,8.393-37-28.141-63.241-57.584-75.906-7.047-3.754,2.5-4.7,6.1-5.8,123.448-8.137,42.071-142.706-45.864-114.9-30.329,10.235-58.461,27.67-91.81,28-12.8-.031-.792-15.5-12.889-19.681-14.1-7.508,1.237-24.975,12.16-21.419,5.05.427,9.55-.945,12.327-4.744,16.431-13.867,2.443-37.15,10.927-54.5,13.749-48.468,61.517-88.62,105.622-102.072,92.984-27.378,184.316-2.106,219.794,88.413,35.207,31.569,79.766,58.317,98.541,103.752,16.108,33.459-1.714,78.251-40.693,89.156-68.148,10.126-120.139-68.555-103.8-130.68-14.42,39.818-1.319,86,32.867,110.993,12.92,6.882-.338,24.7-6.792,32.573-4.577,4.347-4.028,6.147-.58,11,27.841,44.22,55.874,106.648,23.069,156.29,12.678-6.819,16.462-26.667,18.92-41.191C522.928,1214.482,517.042,1188.729,530.863,1195.336ZM165.25,1012.671c31.305-13.484,10.661,25.281,41.31,25.772,15.3-4.668,24.392,12.237,20.486,25.236-3.785,19.848-20.779,9.289-33.106,14.033-18.627,6.666-27.462,26.086-20.522,45.615,3.92,9.628,3.843,12.6-4.334,18.049-8.528,7.52-32.48,12.858-30.846-4.366,1.4-8.3-2.943-12.877-10.617-15.456-7.124-.778-13.776,3.218-16.8-6.684C97.3,1073.738,130.543,1031.129,165.25,1012.671Z" transform="translate(-0.811 537.974)" fill="url(#af)"/><path d="M1061.675,1377.7c-48.92-4.93-113.22-11.743-165.932-18.26,23.352-7.331,63.567-19.239,86.41-26.357,18.1-5.113,38.466-13.17,52.16-25.748,15.924-13.468,18.7-35.6,13-54.144-4.368-14.135-8.748-32.411-17.876-45.71-19.606-30.978-61.28-20.42-91.09-11.571-46.1,13.907-121.089,37.044-168.318,51.339l64.514,211.537,26.1-7.962c-.372-1.218-22.705-74.449-23.06-75.613,24.251,4.239,151.42,17.331,192.9,22.825,18.153-2.854,41.565-12.549,59.681-17.221Zm-228.052-21.942-29.1-95.416c41-12.386,101.955-31.186,142.216-43.378,26.764-8.73,58.558-15.674,67.06,19.886,5.851,21.186,18.7,44.421-3.33,60.048-10.018,7.577-23.426,12.034-35.531,15.757C933.373,1325.416,875.725,1342.864,833.623,1355.762Z" transform="translate(-0.811 537.974)" fill="url(#ag)"/><path d="M272.066,1569.354l.9-.275c1.554-.533,3.031-1.108,3.249.977,18.333,13.434,36.57,28.284,54.276,42.479l32.4-9.884c-50.469-40.22-146.077-116.443-195.136-155.952-7.521-8.12-18.246-15.49-29.792-10.591a18.663,18.663,0,0,0-13.655,10.069c-7.782,16.968-11.863,36.744-18.053,53.716-2.762,8.821-34.961,110.366-38.678,122.133h31.8Zm-168.6,27.814,42.115-132.88c2.963,1.882,101.464,80.471,107.926,86.131-4.226,2.273-22.228,7.764-96.935,30.551Z" transform="translate(-0.811 537.974)" fill="url(#ah)"/><path d="M721.2,1467.782l-75.608,23.062c-19.372,5.941-45.107,9.195-56.566-11.28-9.187-13.424-11.878-31.568-17.25-46.884l203.421-62.047c-2.14-7.019-4.451-14.6-6.588-21.6l-204.322,62.322c-4.349-15.16-10.784-31.129-11.3-46.732-4.234-40.377,69.015-46.436,97.35-58.226l-6.863-22.5c-41.934,15.828-119.73,22.215-119.336,79.689,3.2,36.048,21.787,79.422,29.342,109.119,6.388,16.818,14.628,36.231,32.2,44.292,32.538,13.2,71.833-4.166,104.579-15.17,8.735-2.82,104.948-31.9,116.112-35.418l-6.863-22.5Z" transform="translate(-0.811 537.974)" fill="url(#ai)"/><path d="M262.378,1402.1c2.2,7.211,4.79,15.708,6.863,22.5l100.81-30.749c7.452,24.433,51.2,167.9,57.651,189.033l27-8.237-57.651-189.032,100.811-30.749-6.863-22.5Z" transform="translate(-0.811 537.974)" fill="url(#aj)"/><path d="M696.151,1608.246c-6.925-3.744-58.414-27.637-75.879-35.889-6.241-4.043-12.468-1.617-18.2,1.616-6.652,4-8.529,7.521-6.332,14.722l10.165,33.331h27.547l-5.1-16.714c5.24,2.765,11.024,4.8,16.17,7.858,0,0,8.252,3.755,19.406,8.856h60.986C711.661,1615.7,696.151,1608.246,696.151,1608.246Z" transform="translate(-0.811 537.974)" fill="url(#ak)"/><polygon points="828.91 2045.462 817.209 2049.031 851.052 2160 878.599 2160 842.412 2041.343 828.91 2045.462" fill="url(#al)"/><path d="M935.387,1612.019c-.77-2.526-1.751-5.74-2.745-9l203.421-62.047-6.863-22.5-203.422,62.047c-4.155-15.3-10.826-29.646-11.026-45.831-.908-26.734,25.658-36.815,46.945-42.852,12.791-3.982,37.352-11.335,50.4-15.374l-6.863-22.5c-40.522,15.471-119.994,21.781-118.71,78.514,2,30.956,15.787,60.408,23.379,89.56h28.531C937.444,1618.765,936.448,1615.5,935.387,1612.019Z" transform="translate(-0.811 537.974)" fill="url(#am)"/><path d="M1300.471,1363.9l-228.625,69.734,6.864,22.5,99.91-30.474c2.919,9.572,56.361,184.8,57.65,189.032l27.9-8.511-57.651-189.032,100.811-30.749Z" transform="translate(-0.811 537.974)" fill="url(#an)"/><path d="M1827.109,931.713c-88.372-47.821-191.882-16.248-281.068,13.907-147.539,42.051-227.518,154.012-187.423,308.06,28.755,127.819,86.239,292.522,241.562,295.278-7.048-3.754-13.47-8.682-19.892-13.61-22.165-17.837-17.845-58.511,17.776-54.617,11,.58,12.876-2.944,14.2-8.268,2.655-10.649,5.036-22.2-6.435-27.554-39.74-17.4-75.923-45.714-94.852-85.2-12.736-25.632,6.076-51.048,33.947-46.758,54.019,6.152,128.25,36.641,128.6,92.617,8.394-37-28.141-63.241-57.583-75.906-7.048-3.754,2.5-4.7,6.1-5.8,123.447-8.137,42.071-142.706-45.865-114.9-30.328,10.235-58.461,27.67-91.809,28-12.8-.031-.792-15.5-12.89-19.681-14.1-7.508,1.238-24.975,12.161-21.419,31.51-1.847,14.681-40.182,23.252-59.239,45.521-140.395,276.73-154.949,325.414-13.659,29.947,26.849,66.646,50.219,88.5,84.557V1030.714C1899.026,989.879,1869.7,953.986,1827.109,931.713ZM1497.84,1245.65c31.305-13.484,10.661,25.281,41.309,25.772,15.3-4.667,24.393,12.237,20.486,25.236-3.785,19.848-20.778,9.289-33.105,14.033-18.628,6.666-27.462,26.086-20.522,45.615,3.92,9.628,3.843,12.6-4.334,18.049-8.529,7.52-32.48,12.858-30.847-4.366,1.4-8.3-2.943-12.877-10.616-15.456-7.125-.778-13.776,3.218-16.8-6.684C1429.887,1306.717,1463.132,1264.108,1497.84,1245.65Z" transform="translate(-0.811 537.974)" fill="url(#ao)"/><path d="M1890.159,1315.877c-68.109,10.133-120.168-68.561-103.8-130.68-14.42,39.818-1.319,86,32.866,110.993,12.921,6.882-.337,24.7-6.791,32.572-4.577,4.348-4.028,6.149-.581,11,27.842,44.22,55.875,106.648,23.069,156.29,12.678-6.819,16.463-26.667,18.92-41.191,1.679-7.4-4.207-33.153,9.614-26.546,13.393,11.657,31.485,25.817,14.9,45.634a212.779,212.779,0,0,0,42.458-29.179v-148.5A62.164,62.164,0,0,1,1890.159,1315.877Z" transform="translate(-0.811 537.974)" fill="url(#ap)"/></svg>