<svg xmlns="http://www.w3.org/2000/svg" viewBox="0 0 469.245 36.015">
    <path d="M195.6,34.815a1.854,1.854,0,0,1-.7-.2l-18.6-8.5-7.7-3.5-.2-.1h-.1v12.3h-4v-.9c-.1-4.7-.1-27.9,0-32.6v-.9h26.4a37.7,37.7,0,0,1,5.8.4,10.272,10.272,0,0,1,2.5.7,7.045,7.045,0,0,1,4.2,4.7,15.684,15.684,0,0,1,.5,3.7v4a11.27,11.27,0,0,1-.5,3.2,6.309,6.309,0,0,1-3.6,4.2,10.362,10.362,0,0,1-3.8,1.1,25.806,25.806,0,0,1-4.8.3H177.3l4.1,1.8h0l2.5,1.1,5.3,2.4,8,3.6h0l3,1.3,3.9,1.8-8.5.1Zm-16.3-15.3h11.3l2.9-.1a6.71,6.71,0,0,0,2.8-.6,3.786,3.786,0,0,0,2.7-2.9,7.613,7.613,0,0,0,.3-2.1v-3.8a10.075,10.075,0,0,0-.3-2.5,4,4,0,0,0-2.2-2.7,10.564,10.564,0,0,0-1.9-.6,32.529,32.529,0,0,0-4.4-.3H168.3v15.5h11Z"
          fill="#fff"/>
    <path d="M221.445,35.515V1.115h27.1a26.521,26.521,0,0,1,5.6.5,9.5,9.5,0,0,1,3.3,1.3,6.975,6.975,0,0,1,2.9,4.3,16.518,16.518,0,0,1,.5,3.8v3.4a19.978,19.978,0,0,1-.2,3.5,12.213,12.213,0,0,1-.6,2.6,6.155,6.155,0,0,1-3.4,3.5,18.873,18.873,0,0,1-3.4.9,23.634,23.634,0,0,1-4.6.2h-23.1v10.4Zm14.1-13.9h14.5a13.318,13.318,0,0,0,3.4-.5,3.871,3.871,0,0,0,2.9-3,18.413,18.413,0,0,0,.3-3.3v-3.6a10.075,10.075,0,0,0-.3-2.5,4.208,4.208,0,0,0-1.6-2.5,6.248,6.248,0,0,0-2.2-1,17.518,17.518,0,0,0-4-.4h-22.8v16.8Z"
          fill="#5cc3dd"/>
    <path d="M391.145,36.015a3.337,3.337,0,0,1-2.3-.9l-1.9-1.8-.8-.8-9.2-8.6-7.5-7c-2-1.8-9.1-8.5-9.1-8.5l-.6-.6-1.3-1.2-.2-.2-.1-.1v29.1h-3.9V2.515a1.714,1.714,0,0,1,1.6-1.9,2.769,2.769,0,0,1,.9-.1h.4a1.91,1.91,0,0,1,1.4.7l1.7,1.6,1.2,1.2,6.4,6,5.1,4.8,2.8,2.6,3.7,3.5,3.8,3.6,2.5,2.3,3.5,3.4.2.2.1.1V1.215h4v32.8a1.949,1.949,0,0,1-.1.8,1.589,1.589,0,0,1-.8,1A7.719,7.719,0,0,1,391.145,36.015Z"
          fill="#fff"/>
    <path d="M345.545,35.515l-.4-.6-.8-1.1-.9-1.3-3.9-5.9c-.1-.2-.4-.4-.6-.3h-27.1a.6.6,0,0,0-.6.3l-4.5,7-1.3,1.9h-4.9l18.6-28.2,3.1-4.7.5-.6.1-.2a3.225,3.225,0,0,1,2.6-1.2h.1a3.029,3.029,0,0,1,2.7,1.2c.4.5.8,1.1,1.3,1.8l11.9,18,9.2,13.9Zm-8.3-12.7-11.7-17.8-11.7,17.8Z"
          fill="#fff"/>
    <path d="M43.3,34.815H38.9l1-1.4.4-.6,14.9-22.5,1.5-2.3c1.3-2,2.7-4,4-6a3.915,3.915,0,0,1,.8-1l.1-.1a2.737,2.737,0,0,1,2.2-.9h.9a2.968,2.968,0,0,1,1.9,1,6.1,6.1,0,0,1,1.2,1.6h0l.2.3,8.2,12.4,12.9,19.6h-5l-.3-.4-4.4-6.6-1.2-1.8-.1-.1-.1-.1v-.1c-.1-.1-.2-.2-.3-.2H50.3a.67.67,0,0,0-.7.4c-1,1.6-2.1,3.2-3,4.6v.1c-.8,1.2-1.6,2.5-2.4,3.7l-.3.5Zm8.8-12.6c.7,0,3.6.1,8.2.1,11.7,0,14.5-.1,15.1-.1-.4-.7-3.3-5.1-5.9-9-3.5-5.2-5.4-8.1-5.8-8.6Z"
          fill="#fff"/>
    <path d="M22.9,34.815h-11a19.549,19.549,0,0,1-5.9-.8,7.752,7.752,0,0,1-4.1-2.8,9.189,9.189,0,0,1-1.4-3.2,21.018,21.018,0,0,1-.5-4.3v-12.1a21.358,21.358,0,0,1,.6-5,7.421,7.421,0,0,1,5-5.3,13.592,13.592,0,0,1,3.5-.7,33.887,33.887,0,0,1,4.5-.2h7.3v3.6h-8c-1.1,0-2.2.1-3.2.2a11.627,11.627,0,0,0-1.8.4,4.692,4.692,0,0,0-3.3,3.5,10.855,10.855,0,0,0-.4,2.5v5H36v3.7H4.3v5.3a8.676,8.676,0,0,0,.5,2.8,4.78,4.78,0,0,0,3.8,3.3,14.723,14.723,0,0,0,3.6.4h24v3.6l-13.3.1Z"
          fill="#5cc3dd"/>
    <path d="M138.1,34.815h-3.5a22.244,22.244,0,0,1-5.7-.7,7.594,7.594,0,0,1-5.7-5.9,18.406,18.406,0,0,1-.5-4.1v-12.2a22.416,22.416,0,0,1,.6-5.2,8.178,8.178,0,0,1,2.1-3.6,7.818,7.818,0,0,1,3.2-1.8,13.442,13.442,0,0,1,4-.7c1.2-.1,2.5-.1,4.1-.1h7.1v3.6h-8.1a17.2,17.2,0,0,0-3.2.2l-1.7.4a4.775,4.775,0,0,0-3.4,3.7,14.723,14.723,0,0,0-.4,3.6v3.9h31.9v3.6H127.1v4.7a13.524,13.524,0,0,0,.4,2.9,4.792,4.792,0,0,0,3.9,3.8,14.723,14.723,0,0,0,3.6.4h24v3.6C158.9,34.815,138.1,34.815,138.1,34.815Z"
          fill="#fff"/>
    <path d="M422.045,35.515h-10.8a19.549,19.549,0,0,1-5.9-.8,8.712,8.712,0,0,1-3.7-2.2,8,8,0,0,1-1.7-3.3,18.353,18.353,0,0,1-.6-4.7v-12.4a19.725,19.725,0,0,1,.6-4.8,7.473,7.473,0,0,1,5.6-5.5,12.088,12.088,0,0,1,3.8-.6c1.2-.1,2.5-.1,3.7-.1h7.4v3.6h-8c-1.1,0-2.2.1-3.3.2a16.247,16.247,0,0,0-1.9.4,4.672,4.672,0,0,0-3.3,3.6,11,11,0,0,0-.4,3.1v2.9h0v1.4h31.7v3.6h-31.8v4.9a12.588,12.588,0,0,0,.4,2.7,4.9,4.9,0,0,0,4,3.9,14.723,14.723,0,0,0,3.6.4h24v3.6l-13.4.1Z"
          fill="#fff"/>
    <path d="M98.9,34.815V4.015H83.2V.415h35.6v3.6H103.2v30.8Z" fill="#fff"/>
    <path d="M449.245,35.515V4.715h-15.6v-3.6h35.6v3.6h-15.7v30.8Z" fill="#fff"/>
    <path d="M287.045,35.515h-9.5a20.241,20.241,0,0,1-5.5-.7,8.011,8.011,0,0,1-3.5-1.9,7.813,7.813,0,0,1-2.2-3.7,16.658,16.658,0,0,1-.6-4.4V1.115h4.2v22.8a18.413,18.413,0,0,0,.3,3.3,5.47,5.47,0,0,0,4.1,4.3,17.373,17.373,0,0,0,3.9.5h20.9v3.6h-12.1Z"
          fill="#fff"/>
</svg>
