<?xml version="1.0" encoding="utf-8"?>
<!-- Generator: Adobe Illustrator 25.2.3, SVG Export Plug-In . SVG Version: 6.00 Build 0)  -->
<svg version="1.1" id="图层_1" xmlns="http://www.w3.org/2000/svg" xmlns:xlink="http://www.w3.org/1999/xlink" x="0px" y="0px"
	 viewBox="0 0 1075.2 277.8" style="enable-background:new 0 0 1075.2 277.8;" xml:space="preserve">
<style type="text/css">
	.st0{fill:#3982C5;}
	.st1{fill:#5CC3DD;}
	.st2{fill:url(#SVGID_1_);}
</style>
<g>
	<path class="st0" d="M509.8,384c-0.2,0-0.3,0-0.5-0.1c-4.4-1.9-8.8-3.9-13.3-5.8c-6.6-2.9-4.7-2-5.5-2.4c0,0-0.1,0-0.1-0.1l0,0l0,0
		c0,0,0,0,0,0l0,0c0,0,0,0,0,0.1l0,8.3h-2.9l0-0.6c0-3.2,0-19.1,0-22.3l0-0.6h10.1c2.9,0,5.8,0,8.6,0c1.4,0,2.8,0.1,4.1,0.3
		c0.6,0.1,1.2,0.3,1.8,0.5c1.5,0.5,2.6,1.8,3,3.2c0.2,0.8,0.4,1.7,0.4,2.5c0,1,0,1.9,0,2.7c0,0.7-0.1,1.5-0.4,2.2
		c-0.4,1.3-1.3,2.3-2.6,2.9c-0.8,0.4-1.7,0.6-2.7,0.8c-1.1,0.2-2.3,0.2-3.4,0.2h0c-1.3,0-2.7,0-4,0h-5.6l0,0c1,0.4,2,0.8,2.9,1.3
		l0,0c0.6,0.3,1.2,0.5,1.8,0.8c1.3,0.5,2.5,1.1,3.8,1.6c1.9,0.8,4.9,2.1,5.7,2.4l0,0c0.7,0.3,1.4,0.6,2.1,0.9l2.8,1.2h-3.1
		C511.8,384,510.8,384,509.8,384L509.8,384z M498.2,373.5c2.7,0,5.4,0,8.1,0c0.7,0,1.4,0,2.1-0.1c0.7,0,1.4-0.2,2-0.4
		c1.1-0.4,1.7-1,2-2c0.1-0.5,0.2-0.9,0.2-1.4c0-0.8,0-1.6,0-2.6c0-0.6-0.1-1.2-0.2-1.7c-0.2-0.8-0.8-1.5-1.6-1.8
		c-0.4-0.2-0.9-0.3-1.3-0.4c-1-0.2-2.1-0.2-3.1-0.2c-2.5,0-4.9,0-7.4,0h-8.4v10.6H498.2z"/>
	<path class="st0" d="M402.6,384c-0.4,0-0.8,0-1.2,0c-0.2,0-0.4,0-0.7,0l-1.2,0l0.7-1c0.1-0.1,0.2-0.3,0.3-0.4l10.6-15.4l1.1-1.6
		c0.9-1.3,1.9-2.7,2.8-4.1c0.2-0.2,0.4-0.5,0.6-0.7l0.1-0.1c0.4-0.4,1-0.7,1.6-0.6h0.1c0.2,0,0.4,0,0.5,0c0.5,0.1,1,0.3,1.3,0.7
		c0.3,0.3,0.6,0.7,0.8,1.1l0,0c0,0.1,0.1,0.1,0.1,0.2c1.9,2.8,3.9,5.7,5.8,8.5l9.2,13.4h-1.9c-0.4,0-0.9,0-1.3,0l-0.4,0l-0.2-0.3
		c-1-1.5-2.1-3-3.1-4.5l-0.9-1.2c0,0,0,0,0,0l0-0.1l0,0c0-0.1-0.1-0.1-0.2-0.1c0,0,0,0,0,0l0,0l-0.1,0c0,0,0,0-0.1,0H421
		c-4.3,0-8.8,0-13.4,0c-0.2,0-0.4,0.1-0.5,0.3c-0.7,1.1-1.5,2.2-2.1,3.2l0,0.1c-0.6,0.8-1.2,1.7-1.7,2.5L403,384L402.6,384z
		 M408.9,375.4c0.5,0,2.6,0,5.9,0c8.3,0,10.3,0,10.8-0.1c-0.3-0.5-2.4-3.5-4.2-6.2c-2.5-3.6-3.8-5.5-4.1-5.9L408.9,375.4z"/>
	<path class="st1" d="M386.9,384c-3.1,0-5.6,0-7.8,0c-1.4,0-2.8-0.2-4.2-0.5c-1.3-0.4-2.3-1-2.9-1.9c-0.5-0.7-0.8-1.4-1-2.2
		c-0.2-1-0.3-2-0.3-3c0-3,0-5.7,0-8.3c0-1.1,0.1-2.3,0.4-3.4c0.5-1.8,1.7-3,3.6-3.6c0.8-0.3,1.6-0.4,2.5-0.5
		c1.1-0.1,2.2-0.1,3.2-0.1c0.6,0,1.3,0,1.9,0h3.3v2.5l-3.5,0c-0.8,0-1.5,0-2.3,0c-0.8,0-1.5,0-2.3,0.1c-0.4,0.1-0.9,0.2-1.3,0.3
		c-1.2,0.4-2,1.2-2.4,2.4c-0.2,0.6-0.3,1.1-0.3,1.7c0,0.8,0,1.6,0,2.4c0,0.3,0,0.6,0,0.9c0,0,0,0,0,0.1l0,0l0,0c0,0,0,0,0,0l0,0
		c0,0,0,0,0,0c0,0,0,0,0,0h0.1l22.4,0v2.5h-22.6c0,0,0,0.1,0,0.1c0,0,0,0.1,0,0.1c0,0.3,0,0.6,0,0.9c0,0.8,0,1.7,0,2.5
		c0,0.7,0.1,1.3,0.4,1.9c0.4,1.2,1.3,2,2.7,2.3c0.8,0.2,1.7,0.3,2.6,0.3c2.8,0,5.6,0,8.4,0h8.7v2.5l-4.9,0
		C390,384,388.4,384,386.9,384z"/>
	<path class="st0" d="M469.4,384c-1,0-1.7,0-2.5,0c-1.4,0-2.7-0.2-4-0.5c-0.9-0.2-1.8-0.7-2.5-1.3c-0.8-0.7-1.3-1.7-1.5-2.7
		c-0.2-0.9-0.4-1.9-0.4-2.8c0-2.3,0-5.3,0-8.4c0-1.2,0.1-2.4,0.4-3.6c0.2-0.9,0.8-1.8,1.5-2.5c0.7-0.6,1.4-1,2.3-1.3
		c0.9-0.3,1.9-0.4,2.8-0.5c0.9,0,1.8-0.1,2.9-0.1c0.6,0,1.2,0,1.9,0c0.5,0,0.9,0,1.4,0h0c0.4,0,0.7,0,1.1,0h0.7v2.5l-3.5,0
		c-0.8,0-1.5,0-2.3,0c-0.8,0-1.5,0-2.3,0.1c-0.4,0.1-0.8,0.2-1.2,0.3c-1.3,0.4-2.1,1.2-2.4,2.5c-0.2,0.8-0.3,1.6-0.3,2.5
		c0,0.6,0,1.2,0,1.8v0.6c0,0,0,0.1,0,0.1l0,0.1h22.7l0,0.6c0,0.4,0,0.7,0,1.1v0.7h-22.6c0,0,0,0,0,0.1c0,0.1,0,0.1,0,0.2
		c0,0.3,0,0.5,0,0.8c0,0.7,0,1.5,0,2.2c0,0.7,0.1,1.4,0.3,2c0.4,1.4,1.3,2.3,2.8,2.6c0.9,0.2,1.7,0.3,2.6,0.3c2.8,0,5.6,0,8.4,0h8.7
		v2.5h-11.1c-0.6,0-1.1,0-1.7,0h-0.1C470.6,384,470,384,469.4,384z"/>
	<path class="st0" d="M442.3,384v-0.6c0-1,0-2,0-3V363h-11.2l0-0.6c0-0.3,0-0.6,0-1l0-0.9h25.4v2.5l-0.7,0c-0.1,0-0.2,0-0.3,0
		c-0.2,0-0.3,0-0.5,0c-0.2,0-0.3,0-0.5,0h-0.2c-0.3,0-0.6,0-0.9,0H452h-6.7v21L442.3,384z"/>
	<path class="st1" d="M370.6,412.3v-23.5H381c3,0,6,0,8.9,0c1.3,0,2.7,0.1,4,0.4c0.8,0.2,1.6,0.5,2.3,0.9c1,0.7,1.7,1.6,2.1,2.9
		c0.2,0.9,0.4,1.7,0.4,2.6c0,0.8,0,1.6,0,2.3c0,0.8,0,1.6-0.1,2.4c-0.1,0.6-0.2,1.2-0.5,1.7c-0.4,1.1-1.3,1.9-2.4,2.4
		c-0.8,0.3-1.6,0.5-2.4,0.6c-1.1,0.1-2.2,0.2-3.3,0.2h0c-2.5,0-5,0-7.5,0h-8.8v7.1L370.6,412.3z M380.7,402.8c2.9,0,5.9,0,8.8,0
		c0.4,0,1,0,1.5,0c0.8,0,1.6-0.1,2.4-0.3c1-0.3,1.8-1.1,2-2.1c0.2-0.8,0.3-1.5,0.2-2.3c0-0.8,0-1.5,0-2.3l0-0.1
		c0-0.6-0.1-1.2-0.2-1.7c-0.2-0.7-0.6-1.3-1.2-1.7c-0.5-0.3-1-0.6-1.6-0.7c-0.9-0.2-1.9-0.3-2.8-0.3c-2.2,0-4.6,0-7.7,0
		c-1.5,0-8.3,0-8.3,0c-0.1,0-0.1,0-0.2,0l-0.1,0v11.5L380.7,402.8z"/>
	<path class="st0" d="M485.3,412.6c-0.6,0-1.2-0.2-1.6-0.6c-0.5-0.4-0.9-0.8-1.4-1.2c-0.2-0.2-0.4-0.4-0.6-0.5
		c-0.3-0.3-5-4.5-6.5-5.9l-5.3-4.8c-1.4-1.3-6.5-5.8-6.5-5.8l-0.4-0.4c-0.3-0.3-0.6-0.5-0.9-0.8c0,0-0.1-0.1-0.1-0.1c0,0,0,0,0,0
		v19.9l-0.6,0c-0.2,0-0.5,0-1,0c-0.2,0-0.4,0-0.5,0l-0.7,0v-0.6c0-0.2,0-5.6,0-5.6V406c0-5.3,0-10.8,0-16.2c0-0.8,0.3-1.1,1.1-1.3
		c0.2,0,0.4-0.1,0.6-0.1c0.1,0,0.2,0,0.3,0c0.4,0,0.7,0.2,1,0.5c0.4,0.4,0.8,0.7,1.2,1.1l0.9,0.8c1.4,1.2,4.5,4.1,4.5,4.1
		s2.5,2.3,3.6,3.3l2,1.8c0.9,0.8,1.8,1.6,2.7,2.4c0.9,0.8,1.8,1.6,2.7,2.4l1.7,1.6c0.8,0.8,1.7,1.5,2.5,2.3c0,0,0.1,0.1,0.1,0.1
		l0.1,0.1v-20.1l1.3,0h1.5v18c0,1.5,0,2.9,0,4.4c0,0.2,0,0.4,0,0.6c0,0.3-0.2,0.6-0.5,0.7C486,412.6,485.7,412.6,485.3,412.6z"/>
	<path class="st0" d="M453.5,412.3l-0.3-0.4c-0.2-0.3-0.4-0.5-0.5-0.8l-0.6-0.9c-0.9-1.3-1.8-2.7-2.8-4c-0.1-0.2-0.3-0.2-0.4-0.2
		c-3.2,0-6.4,0-9.5,0c-3.3,0-6.6,0-9.8,0c-0.2,0-0.4,0.1-0.4,0.2c-1.1,1.6-2.2,3.2-3.2,4.8l-0.9,1.3h-3.5l13.3-19.3
		c0.7-1.1,1.5-2.2,2.2-3.2c0.1-0.2,0.2-0.3,0.3-0.4l0.1-0.1c0.4-0.5,1.1-0.8,1.8-0.8h0c0.9,0,1.5,0.3,1.9,0.8
		c0.3,0.4,0.6,0.8,0.9,1.2c2.8,4.1,5.6,8.2,8.5,12.3l6.5,9.5L453.5,412.3z M447.5,403.6l-8.3-12.1l-8.3,12.1H447.5z"/>
	<path class="st0" d="M506.2,412.3c-3,0-5.5,0-7.7,0c-1.4,0-2.8-0.2-4.2-0.5c-1-0.3-1.9-0.8-2.6-1.5c-0.6-0.6-1-1.4-1.2-2.2
		c-0.3-1-0.4-2.1-0.4-3.2c0-2.7,0-5.6,0-8.5c0-1.1,0.1-2.2,0.4-3.3c0.5-1.9,1.9-3.2,3.9-3.8c0.9-0.2,1.8-0.4,2.7-0.4
		c0.9-0.1,1.8-0.1,2.6-0.1l1.2,0h0.3c0.4,0,0.9,0,1.3,0l2.5,0v2.5l-3.4,0c-0.7,0-1.5,0-2.2,0c-0.8,0-1.6,0-2.4,0.1
		c-0.4,0.1-0.9,0.2-1.3,0.3c-1.2,0.4-2,1.2-2.4,2.5c-0.2,0.7-0.3,1.4-0.3,2.1c0,0.7,0,1.3,0,2v0c0,0.3,0,0.5,0,0.8c0,0,0,0.1,0,0.1
		l0,0h22.6v2.5H493c0,0,0,0,0,0c0,0,0,0.1,0,0.1c0,0.3,0,0.6,0,0.8v0.1c0,0.8,0,1.5,0,2.3c0,0.6,0.1,1.2,0.3,1.8
		c0.4,1.4,1.3,2.3,2.8,2.7c0.9,0.2,1.7,0.3,2.6,0.3c2.8,0,5.6,0,8.3,0h8.7v2.5l-4.6,0C509.5,412.3,507.8,412.3,506.2,412.3z"/>
	<path class="st0" d="M523.5,412.3v-0.6c0-0.5,0-1,0-1.4v-19h-11.1v-2.5l0.7,0c1.8,0,7.1,0,13.2,0c5.2,0,9.3,0,10.8,0l0.7,0v2.5
		h-11.2v21L523.5,412.3z"/>
	<path class="st0" d="M416.3,412.3c-2.6,0-4.8,0-6.7,0c-1.3,0-2.7-0.2-3.9-0.5c-0.9-0.2-1.8-0.7-2.5-1.3c-0.8-0.7-1.3-1.6-1.5-2.5
		c-0.3-1-0.4-2-0.4-3c0-3.9,0-7.9,0-11.8l0-4.5h3v4.6c0,3.7,0,7.4,0,11c0,0.8,0.1,1.5,0.2,2.2c0.3,1.5,1.3,2.5,2.9,2.9
		c0.9,0.2,1.9,0.3,2.8,0.3c2.3,0,4.6,0,6.9,0h7.9v2.5c0,0-2.9,0-4,0C419.4,412.3,417.8,412.3,416.3,412.3z"/>
</g>
<linearGradient id="SVGID_1_" gradientUnits="userSpaceOnUse" x1="303.6671" y1="-88.5393" x2="345.2352" y2="-138.7372" gradientTransform="matrix(1 0 0 -1 0 277.89)">
	<stop  offset="0" style="stop-color:#49BCED"/>
	<stop  offset="1" style="stop-color:#2455A5"/>
</linearGradient>
<path class="st2" d="M345.5,411.8c6.7-6.5,7.4-16.5,7.4-25.3c0-8.8-0.7-18.7-7.4-25.3c-7.5-7.6-19-7.6-29-7.3
	c-16.3-0.3-27.9,8.6-28.6,25.5c-0.5,11.8-1.2,26.1,9.1,34.1c1.9,1.5,4,2.6,6.3,3.4c-0.6-0.6-1.1-1.3-1.6-2c-1.7-2.5,0-6.5,3.5-5
	c1.1,0.4,1.4,0.1,1.7-0.4c0.6-1,1.2-2.1,0.2-3c-3.5-3-6.3-7-7-11.6c-0.5-3,2.2-5,4.9-3.7c5.3,2.3,11.9,7.7,10.2,13.4
	c2-3.5-0.9-7.3-3.5-9.5c-0.6-0.6,0.4-0.4,0.8-0.4c12.8,3,8.7-13.2-1.1-13.1c-3.4,0.1-6.8,1-10.2,0c-1.3-0.4,0.4-1.6-0.7-2.4
	c-1.2-1.2,0.9-2.5,1.9-1.8c0.5,0.2,1,0.2,1.4-0.1c2.1-0.9,1.4-3.7,2.8-5.2c2.9-4.5,9-7.1,13.9-7.1c10.3,0.1,18.8,5.5,19.6,15.8
	c2.6,4.3,6.3,8.4,6.8,13.6c0.6,3.9-2.6,7.9-6.9,7.8c-5.3-0.7-8.8-6.9-8-12c0.1-1.6,1-3.2,1.5-4.5c-2.7,3.6-2.8,8.7-0.1,12.3
	c1.1,1.1-0.8,2.5-1.7,3.1c-0.6,0.3-0.6,0.5-0.4,1.1c1.4,5.2,2.3,11.8-1.9,16.1c-0.2,0.2-0.5,0.4-0.6,0.5c1.5-0.3,2.5-2.2,3.2-3.6
	c0.4-0.7,0.6-3.5,1.8-2.4c1,1.6,2.4,3.6,0.1,5.1C338.2,417.1,342.4,415,345.5,411.8z M302.3,382.9c3.6-0.4,0.3,2.9,3.4,3.9
	c1.7,0,2.1,2,1.3,3.2c-1,1.9-2.4,0.3-3.8,0.4c-2.1,0.1-3.6,1.8-3.5,4c0.1,1.1,0,1.4-1,1.7c-1.1,0.5-3.7,0.3-3-1.4
	c0.4-0.8,0.1-1.4-0.6-1.9c-0.7-0.3-1.5-0.1-1.5-1.2C293.5,387,298.2,383.7,302.3,382.9z"/>
</svg>
